<svg xmlns="http://www.w3.org/2000/svg" width="20.497" height="20" viewBox="0 0 20.497 20">
  <path id="Tracé_1" data-name="Tracé 1" d="M2181.7,1330.163c-2.771-2.123-3.646-4.463-2.7-7.227a6.1,6.1,0,0,1,11.554.178c.834,2.661-.131,5.111-2.841,7.084a11.339,11.339,0,0,1,5.224,3.2,7.935,7.935,0,0,1,2.026,4.852c.022.35-.026.6-.481.589-.384-.009-.551-.123-.562-.533-.1-3.6-3.418-6.436-6.853-7.136a9.875,9.875,0,0,0-9.7,2.923,6.921,6.921,0,0,0-1.8,3.971c-.05.364.154.9-.565.824-.744-.082-.5-.632-.454-1.021a8.6,8.6,0,0,1,4.73-6.609C2180.042,1330.824,2180.886,1330.524,2181.7,1330.163Zm3.065-.344a4.983,4.983,0,0,0,5.019-4.955,5.056,5.056,0,1,0-5.019,4.955Z" transform="translate(-2174.463 -1318.893)" fill="#fff"/>
</svg>
